{"title":"DJ CoNE - Ataque Ochentoso Vol 3","uid":3377641,"size":114950326,"categoryP":"audio","categoryS":"music","magnet":"?xt=urn:btih:0da394e17288457cb9a083b3c7c362e40309df1f&amp;dn=DJ+CoNE+-+Ataque+Ochentoso+Vol+3&amp;tr=udp%3A%2F%2Ftracker.openbittorrent.com%3A80&amp;tr=udp%3A%2F%2Fopen.demonii.com%3A1337&amp;tr=udp%3A%2F%2Ftracker.coppersurfer.tk%3A6969&amp;tr=udp%3A%2F%2Fexodus.desync.com%3A6969","seeders":0,"leechers":1,"uploader":"benitomdq","files":2,"time":1125598001,"description":"PERFORMER  DJ CoNE \nTITLE  Ataque Ochentoso Vol 3 \nFILE  DJ CoNE - Ataque Ochentoso Vol 3.mp3  MP3\n  TRACK 01 AUDIO\n    TITLE  Wilfred y La Ganga - Mi abuela (Intro) \n    INDEX 01 00:00:00\n  TRACK 02 AUDIO\n    TITLE  Confetti's - C In china (12' version) \n    INDEX 01 00:06:70\n  TRACK 03 AUDIO\n    TITLE  Erotic Dissidents - Move your ass and feel the beat (Remix) \n    INDEX 01 05:22:48\n  TRACK 04 AUDIO\n    TITLE  Okay - 1234 une grande affaire (Mix) \n    INDEX 01 11:13:17\n  TRACK 05 AUDIO\n    TITLE  O.K. - Okay! (Mixed-media-edit) \n    INDEX 01 14:52:43\n  TRACK 06 AUDIO\n    TITLE  Big Fun - Blame into the boogie (PWL mix) \n    INDEX 01 19:55:57\n  TRACK 07 AUDIO\n    TITLE  Off - Electrica salsa (The mad house mix) \n    INDEX 01 25:46:04\n  TRACK 08 AUDIO\n    TITLE  Rocco Granata - Marina (12' version) \n    INDEX 01 31:37:64\n  TRACK 09 AUDIO\n    TITLE  Francesco Salvi - C'e da spostare una macchina (The party) \n    INDEX 01 34:43:02\n  TRACK 10 AUDIO\n    TITLE  Locomia - Locomia (Extended) \n    INDEX 01 37:38:23\n  TRACK 11 AUDIO\n    TITLE  Starlight - Numero uno (Radio edit) \n    INDEX 01 40:35:23\n  TRACK 12 AUDIO\n    TITLE  Off - La casa latina (Grande fiesta mix) \n    INDEX 01 43:38:67\n  TRACK 13 AUDIO\n    TITLE  Bizz Nizz - We're gonna catch you (D.J. mix) \n    INDEX 01 47:11:43\n  TRACK 14 AUDIO\n    TITLE  Out Of The Ordinary - Play it again (The los ni&amp;ntilde;os remix) \n    INDEX 01 50:07:45\n  TRACK 15 AUDIO\n    TITLE  Yazz - The only way is up (7' version) \n    INDEX 01 55:11:00\n  TRACK 16 AUDIO\n    TITLE  Fax Yourself feat Carrie Ann - I feel love (The ultimate remix) \n    INDEX 01 58:08:27\n  TRACK 17 AUDIO\n    TITLE  Maurice - This is acid (K &amp; T mix) \n    INDEX 01 61:22:74\n  TRACK 18 AUDIO\n    TITLE  Video Kids - Woodpeckers from space (House version) \n    INDEX 01 64:50:22\n  TRACK 19 AUDIO\n    TITLE  Wood Allen - Airport '89 (Club mix) \n    INDEX 01 67:39:23\n  TRACK 20 AUDIO\n    TITLE  New Age Kids - Get down (Soweto house mix) \n    INDEX 01 70:00:64\n  TRACK 21 AUDIO\n    TITLE  Crazy Eddie - Nena de ibiza (Vocal mix) \n    INDEX 01 73:04:29\n  TRACK 22 AUDIO\n    TITLE  Lil' Louis - French kiss (Extended) \n    INDEX 01 75:22:03\n","torrent":{"xt":"urn:btih:0da394e17288457cb9a083b3c7c362e40309df1f","amp;dn":"DJ+CoNE+-+Ataque+Ochentoso+Vol+3","amp;tr":["udp%3A%2F%2Ftracker.openbittorrent.com%3A80","udp%3A%2F%2Fopen.demonii.com%3A1337","udp%3A%2F%2Ftracker.coppersurfer.tk%3A6969","udp%3A%2F%2Fexodus.desync.com%3A6969"],"infoHash":"0da394e17288457cb9a083b3c7c362e40309df1f","infoHashBuffer":{"type":"Buffer","data":[13,163,148,225,114,136,69,124,185,160,131,179,199,195,98,228,3,9,223,31]},"announce":[],"urlList":[]}}